<svg width="23" height="23" viewBox="0 0 23 23" fill="none" xmlns="http://www.w3.org/2000/svg">
<path d="M18.9939 15.6126C17.8551 14.2188 17.0511 13.5093 17.0511 9.66679C17.0511 6.14802 15.2543 4.89439 13.7754 4.28554C13.5789 4.20483 13.394 4.01947 13.3341 3.8177C13.0747 2.93479 12.3474 2.15698 11.3807 2.15698C10.414 2.15698 9.68631 2.93524 9.42955 3.81859C9.36969 4.02257 9.18477 4.20483 8.98832 4.28554C7.50764 4.89528 5.71256 6.14448 5.71256 9.66679C5.71035 13.5093 4.90637 14.2188 3.7676 15.6126C3.29577 16.1899 3.70906 17.0569 4.53432 17.0569H18.2316C19.0524 17.0569 19.463 16.1873 18.9939 15.6126Z" stroke="black" stroke-width="1.41904" stroke-linecap="round" stroke-linejoin="round"/>
<path d="M14.2188 17.0569V17.7664C14.2188 18.5191 13.9198 19.241 13.3876 19.7732C12.8553 20.3055 12.1334 20.6045 11.3807 20.6045C10.628 20.6045 9.90616 20.3055 9.37392 19.7732C8.84167 19.241 8.54266 18.5191 8.54266 17.7664V17.0569" stroke="black" stroke-width="1.41904" stroke-linecap="round" stroke-linejoin="round"/>
</svg>
