<svg width="18" height="19" viewBox="0 0 18 19" fill="none" xmlns="http://www.w3.org/2000/svg">
<path d="M14.9537 8.29468C14.9537 11.5843 8.99692 17.2299 8.99692 17.2299C8.99692 17.2299 3.04013 11.5843 3.04013 8.29468C3.04013 6.71484 3.66772 5.19971 4.78483 4.08259C5.90195 2.96548 7.41708 2.33789 8.99692 2.33789C10.5768 2.33789 12.0919 2.96548 13.209 4.08259C14.3261 5.19971 14.9537 6.71484 14.9537 8.29468V8.29468Z" fill="#1E7E34"/>
<path d="M8.99691 8.89055C9.23389 8.89055 9.46116 8.79641 9.62872 8.62885C9.79629 8.46128 9.89043 8.23401 9.89043 7.99703C9.89043 7.76006 9.79629 7.53279 9.62872 7.36522C9.46116 7.19765 9.23389 7.10352 8.99691 7.10352C8.75994 7.10352 8.53267 7.19765 8.3651 7.36522C8.19753 7.53279 8.10339 7.76006 8.10339 7.99703C8.10339 8.23401 8.19753 8.46128 8.3651 8.62885C8.53267 8.79641 8.75994 8.89055 8.99691 8.89055V8.89055Z" fill="white" stroke="white" stroke-width="1.4892" stroke-linecap="round" stroke-linejoin="round"/>
</svg>
