<svg width="11" height="12" viewBox="0 0 11 12" fill="none" xmlns="http://www.w3.org/2000/svg">
<path d="M4.00337 4.48528L5.16819 2.13952C5.20209 2.07163 5.25424 2.01453 5.31878 1.97462C5.38333 1.93471 5.45771 1.91357 5.53359 1.91357C5.60948 1.91357 5.68386 1.93471 5.7484 1.97462C5.81294 2.01453 5.86509 2.07163 5.899 2.13952L7.06381 4.48528L9.66783 4.86369C9.74294 4.87411 9.81361 4.90543 9.87177 4.95408C9.92993 5.00274 9.97324 5.06676 9.99676 5.13885C10.0203 5.21095 10.023 5.28819 10.0048 5.36179C9.98648 5.43538 9.94787 5.50235 9.89335 5.55505L8.00938 7.37983L8.45414 9.95784C8.51108 10.2887 8.16137 10.5407 7.86232 10.3847L5.53359 9.16695L3.20441 10.3847C2.90581 10.5411 2.5561 10.2887 2.61304 9.95739L3.0578 7.37938L1.17384 5.5546C1.11958 5.50186 1.08121 5.43496 1.06308 5.3615C1.04495 5.28804 1.04779 5.21097 1.07129 5.13904C1.09478 5.06712 1.13798 5.00323 1.19597 4.95463C1.25397 4.90603 1.32443 4.87468 1.39936 4.86414L4.00337 4.48528V4.48528Z" fill="#FFC42D"/>
</svg>
