<svg width="24" height="24" viewBox="0 0 24 24" fill="none" xmlns="http://www.w3.org/2000/svg">
<path d="M15.0508 5.19237C15.0508 3.60348 13.7652 2.31543 12.1792 2.31543C10.5932 2.31543 9.30756 3.60348 9.30756 5.19237V10.9462C9.30756 12.5351 10.5932 13.8232 12.1792 13.8232C13.7652 13.8232 15.0508 12.5351 15.0508 10.9462V5.19237Z" stroke="#A1A5C1" stroke-width="1.09799"/>
<path d="M5.47873 9.98706V10.946C5.47873 12.7264 6.18467 14.4338 7.44126 15.6927C8.69784 16.9516 10.4021 17.6589 12.1792 17.6589C13.9563 17.6589 15.6606 16.9516 16.9172 15.6927C18.1738 14.4338 18.8797 12.7264 18.8797 10.946V9.98706" stroke="#A1A5C1" stroke-width="1.09799" stroke-linecap="round" stroke-linejoin="round"/>
<path d="M12.1792 21.4951H15.0508M12.1792 17.6592V21.4951V17.6592ZM12.1792 21.4951H9.30756H12.1792Z" stroke="#A1A5C1" stroke-width="1.09799" stroke-linecap="round" stroke-linejoin="round"/>
</svg>
