<svg width="17" height="14" viewBox="0 0 17 14" fill="none" xmlns="http://www.w3.org/2000/svg">
<path d="M4.11562 3.15838V0.509033H16.1358V3.15838H4.11562ZM4.11562 8.45707V5.80773H16.1358V8.45707H4.11562ZM4.11562 13.7558V11.1064H16.1358V13.7558H4.11562ZM1.53986 3.15838C1.2966 3.15838 1.09283 3.03121 0.92855 2.77687C0.764274 2.52254 0.68185 2.20815 0.681277 1.83371C0.680705 1.45927 0.763129 1.14488 0.92855 0.890539C1.09397 0.636202 1.29774 0.509033 1.53986 0.509033C1.78198 0.509033 1.98604 0.636202 2.15203 0.890539C2.31803 1.14488 2.40017 1.45927 2.39845 1.83371C2.39673 2.20815 2.31431 2.52298 2.15118 2.7782C1.98804 3.03342 1.78427 3.16015 1.53986 3.15838ZM1.53986 8.45707C1.2966 8.45707 1.09283 8.32991 0.92855 8.07557C0.764274 7.82123 0.68185 7.50684 0.681277 7.1324C0.680705 6.75796 0.763129 6.44357 0.92855 6.18923C1.09397 5.9349 1.29774 5.80773 1.53986 5.80773C1.78198 5.80773 1.98604 5.9349 2.15203 6.18923C2.31803 6.44357 2.40017 6.75796 2.39845 7.1324C2.39673 7.50684 2.31431 7.82167 2.15118 8.07689C1.98804 8.33211 1.78427 8.45884 1.53986 8.45707ZM1.53986 13.7558C1.2966 13.7558 1.09283 13.6286 0.92855 13.3743C0.764274 13.1199 0.68185 12.8055 0.681277 12.4311C0.680705 12.0567 0.763129 11.7423 0.92855 11.4879C1.09397 11.2336 1.29774 11.1064 1.53986 11.1064C1.78198 11.1064 1.98604 11.2336 2.15203 11.4879C2.31803 11.7423 2.40017 12.0567 2.39845 12.4311C2.39673 12.8055 2.31431 13.1204 2.15118 13.3756C1.98804 13.6308 1.78427 13.7575 1.53986 13.7558Z" fill="#282828" fill-opacity="0.85"/>
</svg>
