<svg width="13" height="14" viewBox="0 0 13 14" fill="none" xmlns="http://www.w3.org/2000/svg">
<path d="M11.479 7.92152C11.5053 7.71075 11.5251 7.49998 11.5251 7.27603C11.5251 7.05209 11.5053 6.84132 11.479 6.63055L12.8687 5.54376C12.9939 5.44496 13.0268 5.26713 12.9478 5.12222L11.6305 2.84326C11.5712 2.73788 11.4592 2.6786 11.3407 2.6786C11.3011 2.6786 11.2616 2.68519 11.2287 2.69836L9.58863 3.35702C9.24613 3.09355 8.87728 2.8762 8.4755 2.71153L8.22521 0.96609C8.20545 0.808012 8.06713 0.689453 7.90247 0.689453H5.26784C5.10317 0.689453 4.96485 0.808012 4.94509 0.96609L4.6948 2.71153C4.29302 2.8762 3.92417 3.10014 3.58167 3.35702L1.94161 2.69836C1.90209 2.68519 1.86257 2.6786 1.82305 2.6786C1.71108 2.6786 1.59911 2.73788 1.53983 2.84326L0.222515 5.12222C0.13689 5.26713 0.176409 5.44496 0.301554 5.54376L1.69132 6.63055C1.66498 6.84132 1.64522 7.05868 1.64522 7.27603C1.64522 7.49339 1.66498 7.71075 1.69132 7.92152L0.301554 9.0083C0.176409 9.1071 0.143476 9.28494 0.222515 9.42984L1.53983 11.7088C1.59911 11.8142 1.71108 11.8735 1.82964 11.8735C1.86916 11.8735 1.90868 11.8669 1.94161 11.8537L3.58167 11.195C3.92417 11.4585 4.29302 11.6759 4.6948 11.8405L4.94509 13.586C4.96485 13.7441 5.10317 13.8626 5.26784 13.8626H7.90247C8.06713 13.8626 8.20545 13.7441 8.22521 13.586L8.4755 11.8405C8.87728 11.6759 9.24613 11.4519 9.58863 11.195L11.2287 11.8537C11.2682 11.8669 11.3077 11.8735 11.3472 11.8735C11.4592 11.8735 11.5712 11.8142 11.6305 11.7088L12.9478 9.42984C13.0268 9.28494 12.9939 9.1071 12.8687 9.0083L11.479 7.92152ZM10.1748 6.79521C10.2012 6.9994 10.2078 7.13771 10.2078 7.27603C10.2078 7.41435 10.1946 7.55926 10.1748 7.75685L10.0826 8.50114L10.6688 8.9622L11.3802 9.51547L10.9191 10.3124L10.0826 9.97653L9.39762 9.69989L8.80483 10.1478C8.52161 10.3586 8.25156 10.5166 7.98151 10.6286L7.28333 10.9118L7.17794 11.6561L7.04621 12.5453H6.12409L5.99895 11.6561L5.89356 10.9118L5.19538 10.6286C4.91216 10.51 4.6487 10.3586 4.38523 10.161L3.78585 9.69989L3.08768 9.98312L2.25118 10.319L1.79012 9.52206L2.50147 8.96878L3.08768 8.50772L2.99547 7.76344C2.97571 7.55926 2.96253 7.40776 2.96253 7.27603C2.96253 7.1443 2.97571 6.99281 2.99547 6.79521L3.08768 6.05093L2.50147 5.58987L1.79012 5.0366L2.25118 4.23962L3.08768 4.57554L3.77268 4.85217L4.36547 4.40428C4.6487 4.19351 4.91875 4.03544 5.1888 3.92346L5.88697 3.64024L5.99236 2.89596L6.12409 2.00677H7.03963L7.16477 2.89596L7.27016 3.64024L7.96833 3.92346C8.25156 4.04202 8.51502 4.19351 8.77848 4.39111L9.37786 4.85217L10.076 4.56895L10.9125 4.23303L11.3736 5.03001L10.6688 5.58987L10.0826 6.05093L10.1748 6.79521ZM6.58515 4.6414C5.12952 4.6414 3.95052 5.8204 3.95052 7.27603C3.95052 8.73167 5.12952 9.91066 6.58515 9.91066C8.04079 9.91066 9.21978 8.73167 9.21978 7.27603C9.21978 5.8204 8.04079 4.6414 6.58515 4.6414ZM6.58515 8.59335C5.86063 8.59335 5.26784 8.00056 5.26784 7.27603C5.26784 6.55151 5.86063 5.95872 6.58515 5.95872C7.30968 5.95872 7.90247 6.55151 7.90247 7.27603C7.90247 8.00056 7.30968 8.59335 6.58515 8.59335Z" fill="#282828" fill-opacity="0.85"/>
</svg>
