<svg width="9" height="9" viewBox="0 0 9 9" fill="none" xmlns="http://www.w3.org/2000/svg">
<path fill-rule="evenodd" clip-rule="evenodd" d="M1.0606 0.286978C1.15903 0.1887 1.27722 0.112463 1.40733 0.0633167C1.53745 0.0141708 1.67653 -0.00676085 1.81535 0.00190873C1.95417 0.0105783 2.08956 0.0486512 2.21255 0.113604C2.33555 0.178558 2.44333 0.268908 2.52876 0.378668L3.53848 1.67582C3.72354 1.91377 3.78879 2.22371 3.71567 2.51622L3.40797 3.74813C3.39218 3.81194 3.39309 3.87874 3.41063 3.9421C3.42817 4.00545 3.46174 4.06322 3.5081 4.10982L4.8902 5.49192C4.93686 5.53837 4.99472 5.572 5.05818 5.58954C5.12164 5.60708 5.18856 5.60795 5.25246 5.59205L6.4838 5.28435C6.62816 5.24847 6.77878 5.24577 6.92434 5.27646C7.0699 5.30715 7.20661 5.37043 7.32419 5.46154L8.62135 6.47069C9.08767 6.83351 9.13043 7.52259 8.71304 7.93941L8.1314 8.52105C7.71514 8.93731 7.093 9.12013 6.51305 8.91594C5.02839 8.39425 3.68053 7.54439 2.56983 6.42963C1.45513 5.31908 0.605277 3.97143 0.0835169 2.48697C-0.120113 1.90758 0.0627039 1.28488 0.478964 0.868617L1.0606 0.286978Z" fill="#282828"/>
</svg>
