<?xml version="1.0" encoding="UTF-8"?>
<svg version="1.1" xmlns="http://www.w3.org/2000/svg" width="658" height="975">
<path d="M0 0 C217.14 0 434.28 0 658 0 C658 321.75 658 643.5 658 975 C440.86 975 223.72 975 0 975 C0 653.25 0 331.5 0 0 Z " fill="#FEFEFE" transform="translate(0,0)"/>
<path d="M0 0 C0 151.14 0 302.28 0 458 C-123.55803362 458.40338894 -123.55803362 458.40338894 -173.09438623 458.48493221 C-184.82909557 458.50426735 -196.56380387 458.52413591 -208.29851013 458.54525994 C-209.79821967 458.54795837 -211.29792924 458.55064208 -212.79763884 458.55331089 C-236.6842911 458.59594035 -260.57070587 458.67094859 -284.45721471 458.76297221 C-309.01739899 458.85741879 -333.57745206 458.91888229 -358.13781486 458.9391499 C-361.61087474 458.94203123 -365.08393417 458.94528759 -368.55699348 458.94877243 C-369.58226343 458.94978378 -369.58226343 458.94978378 -370.6282459 458.95081555 C-381.60826835 458.96260922 -392.58788376 459.00892535 -403.56774055 459.06832034 C-414.62004553 459.12736438 -425.67204284 459.1488307 -436.72452324 459.13501377 C-442.70770879 459.12861964 -448.6897049 459.13829809 -454.67267799 459.19205475 C-460.15946664 459.24099126 -465.64427479 459.24300558 -471.13115776 459.20898895 C-473.1072612 459.20478977 -475.08349206 459.21724949 -477.05934756 459.24883182 C-490.48323534 459.45077985 -499.1904819 456.96451272 -510.21707106 449.2220829 C-512.89032373 447.38974045 -515.68002057 445.82363399 -518.50390625 444.234375 C-519.4988208 443.66178955 -520.49373535 443.0892041 -521.51879883 442.49926758 C-522.52322021 441.92200928 -523.5276416 441.34475098 -524.5625 440.75 C-533.16250093 435.79901979 -541.74643646 430.82195902 -550.3125 425.8125 C-558.53631566 421.0045042 -566.78894483 416.25112554 -575.06762695 411.53833008 C-581.73742673 407.73573273 -588.37284934 403.87637775 -595 400 C-602.58236991 395.56525813 -610.181529 391.16309925 -617.8125 386.8125 C-618.65707764 386.32990723 -619.50165527 385.84731445 -620.37182617 385.35009766 C-624.75183681 382.84807829 -629.13793096 380.35748586 -633.53125 377.87890625 C-635.29179813 376.87783533 -637.05221964 375.87654168 -638.8125 374.875 C-639.63790283 374.41327393 -640.46330566 373.95154785 -641.3137207 373.47583008 C-642.06226318 373.04810303 -642.81080566 372.62037598 -643.58203125 372.1796875 C-644.24436768 371.80569824 -644.9067041 371.43170898 -645.58911133 371.04638672 C-646.05470459 370.7010791 -646.52029785 370.35577148 -647 370 C-647 369.34 -647 368.68 -647 368 C-646.48429443 367.73485596 -645.96858887 367.46971191 -645.43725586 367.1965332 C-633.97044439 361.28488361 -622.65571443 355.16311436 -611.45092773 348.76879883 C-604.76935723 344.96757491 -598.01716792 341.34274885 -591.19384766 337.80395508 C-584.9626745 334.55282322 -578.85240002 331.1109133 -572.75 327.625 C-564.93641555 323.16459514 -557.05584438 318.87967403 -549.0625 314.75 C-541.44033127 310.81158386 -533.90599176 306.77219816 -526.453125 302.5234375 C-522.93724605 300.52120221 -519.40134229 298.55726972 -515.859375 296.6015625 C-502.70694281 289.33907461 -489.65308573 281.93838171 -476.6953125 274.33203125 C-471.32063681 271.17907006 -465.91605437 268.08120373 -460.5 265 C-453.11747552 260.79766138 -445.76881197 256.54103036 -438.4375 252.25 C-429.06598533 246.76601872 -419.65196664 241.3599725 -410.21795654 235.98461914 C-400.97369114 230.71595558 -391.76894033 225.38264093 -382.5859375 220.0078125 C-375.39367246 215.80192187 -368.1685591 211.65705124 -360.92749023 207.53588867 C-354.29935173 203.75756874 -347.70859806 199.91781263 -341.125 196.0625 C-333.14221628 191.38908577 -325.1243028 186.78572845 -317.0625 182.25 C-309.89234366 178.21562405 -302.76078382 174.12908055 -295.68164062 169.93725586 C-285.96842173 164.19254811 -276.17420157 158.58693497 -266.39501953 152.95556641 C-260.9283002 149.80667946 -255.46425113 146.65316736 -250 143.5 C-247.83334689 142.2499765 -245.66668021 140.99997653 -243.5 139.75 C-242.4275 139.13125 -241.355 138.5125 -240.25 137.875 C-219.66666667 126 -199.08333333 114.125 -178.5 102.25 C-177.42709717 101.6310083 -176.35419434 101.0120166 -175.2487793 100.37426758 C-173.08621417 99.1266526 -170.92361661 97.87909384 -168.76098633 96.6315918 C-163.28129629 93.47056551 -157.80220642 90.30850691 -152.32421875 87.14453125 C-142.24843065 81.32614962 -132.16858667 75.51562788 -122.0625 69.75 C-109.39738911 62.52319794 -96.78241112 55.21215784 -84.19262695 47.85498047 C-74.8006041 42.36701932 -65.38748832 36.92082232 -55.93408203 31.53930664 C-49.26371426 27.73637972 -42.62773048 23.87668707 -36 20 C-28.06296169 15.35815221 -20.10863724 10.74878859 -12.125 6.1875 C-11.23296875 5.67767578 -10.3409375 5.16785156 -9.421875 4.64257812 C-1.27970479 0 -1.27970479 0 0 0 Z " fill="#1FA701" transform="translate(658,517)"/>
<path d="M0 0 C3.05078125 1.5390625 3.05078125 1.5390625 6.3125 3.625 C7.62720738 4.44673474 8.94376645 5.26551107 10.26171875 6.08203125 C11.00083496 6.54174316 11.73995117 7.00145508 12.50146484 7.47509766 C17.48597183 10.51723471 22.56200364 13.40360929 27.625 16.3125 C28.74994873 16.96033447 29.87489746 17.60816895 31.03393555 18.27563477 C37.88860086 22.22047228 44.75423767 26.14578886 51.625 30.0625 C60.01923088 34.84773348 68.37039428 39.70413064 76.71191406 44.58056641 C84.08625263 48.88952597 91.47556856 53.17178196 98.875 57.4375 C100.47734497 58.36127441 100.47734497 58.36127441 102.11206055 59.30371094 C106.57958865 61.87841175 111.0477956 64.45193191 115.51660156 67.02441406 C117.87346291 68.38115258 120.23006924 69.73833221 122.58642578 71.09594727 C124.79006869 72.36546119 126.99413955 73.63423268 129.19873047 74.90209961 C135.50604177 78.53619696 141.77239786 82.23088847 148 86 C146.55416201 90.33751396 143.28157201 91.29362672 139.4375 93.3125 C137.7786002 94.20844659 136.12111882 95.10702299 134.46484375 96.0078125 C133.57651855 96.49024414 132.68819336 96.97267578 131.77294922 97.46972656 C126.96521693 100.12291075 122.23521152 102.90757042 117.5 105.6875 C109.05781221 110.6325282 100.60191637 115.55221651 92.125 120.4375 C90.50779053 121.36973389 90.50779053 121.36973389 88.85791016 122.32080078 C84.47536799 124.8464552 80.09216077 127.37095429 75.70898438 129.89550781 C72.43068938 131.78398493 69.15271515 133.67301666 65.875 135.5625 C64.79605469 136.18447266 63.71710938 136.80644531 62.60546875 137.44726562 C55.43128049 141.58688448 48.2744002 145.75524921 41.125 149.9375 C31.85436069 155.35958699 22.54063301 160.70324012 13.20953369 166.02023315 C5.11292157 170.63484029 -2.95788801 175.29084886 -11 180 C-20.22631027 185.40257206 -29.49627358 190.72506976 -38.78598022 196.01748657 C-46.99004154 200.69252941 -55.16501468 205.41433363 -63.3125 210.1875 C-71.94594195 215.24455571 -80.63131231 220.19971085 -89.35229492 225.10400391 C-97.33563379 229.6026007 -105.25274995 234.2093806 -113.16015625 238.83984375 C-119.58475543 242.59936213 -126.030657 246.31805543 -132.5 250 C-139.88244232 254.20248513 -147.23118605 258.45896848 -154.5625 262.75 C-163.3438531 267.88863315 -172.16006127 272.96312367 -181 278 C-189.69402291 282.9537764 -198.36500375 287.94373077 -207 293 C-215.73990573 298.11727601 -224.51479099 303.17051595 -233.3125 308.1875 C-242.60299342 313.48565473 -251.87837387 318.80812704 -261.12890625 324.17578125 C-266.93417857 327.54412307 -272.74847543 330.89679513 -278.5625 334.25 C-280.20230835 335.19601074 -280.20230835 335.19601074 -281.87524414 336.16113281 C-287.53025294 339.42324085 -293.18630454 342.68352587 -298.84375 345.94140625 C-301.08339768 347.23165914 -303.322982 348.52202203 -305.5625 349.8125 C-306.63951172 350.43294189 -307.71652344 351.05338379 -308.82617188 351.69262695 C-315.97621429 355.81710142 -323.10366571 359.97789302 -330.19165039 364.20825195 C-334.89395395 367 -334.89395395 367 -336 367 C-336 308.26 -336 249.52 -336 189 C-327.75 184.38 -319.5 179.76 -311 175 C-301.87682089 169.6938552 -301.87682089 169.6938552 -292.765625 164.3671875 C-287.36580985 161.20557228 -281.93841202 158.0946332 -276.5 155 C-269.07759823 150.77398903 -261.68602375 146.49822157 -254.3125 142.1875 C-242.66189447 135.37642018 -230.97628026 128.62726331 -219.28222656 121.89111328 C-213.85340055 118.7631985 -208.42682751 115.63138034 -203 112.5 C-200.83984643 111.25390161 -198.67969017 110.00780786 -196.51953125 108.76171875 C-192.12040925 106.22384007 -187.72205679 103.68463417 -183.32421875 101.14453125 C-173.35352117 95.38691778 -163.37860259 89.63778107 -153.375 83.9375 C-144.98067687 79.15243103 -136.62960353 74.29586808 -128.28808594 69.41943359 C-117.6517169 63.20441055 -106.97894182 57.05310091 -96.30419922 50.90429688 C-92.97385748 48.98493338 -89.64490852 47.06317647 -86.31640625 45.140625 C-76.34856551 39.38386764 -66.37596995 33.63653656 -56.375 27.9375 C-48.76951014 23.60030929 -41.19032792 19.21936106 -33.625 14.8125 C-32.61236084 14.2251709 -31.59972168 13.6378418 -30.55639648 13.03271484 C-26.12117243 10.45109855 -21.71458568 7.84893835 -17.39453125 5.078125 C-16.37528564 4.43266724 -16.37528564 4.43266724 -15.33544922 3.77416992 C-13.58722644 2.65808687 -11.85341981 1.51950727 -10.12109375 0.37890625 C-6.15304265 -1.37418766 -4.16021353 -1.13079629 0 0 Z " fill="#23C001" transform="translate(336,2)"/>
<path d="M0 0 C0 153.45 0 306.9 0 465 C-84.5 513.75 -84.5 513.75 -87.75097656 515.62548828 C-89.91447476 516.87371034 -92.07788643 518.12208239 -94.24121094 519.37060547 C-99.70565017 522.52405256 -105.17163645 525.67476096 -110.640625 528.8203125 C-112.84383665 530.08839113 -115.04696237 531.35661906 -117.25 532.625 C-118.31541016 533.23802979 -119.38082031 533.85105957 -120.47851562 534.48266602 C-125.82399409 537.565307 -131.15179959 540.67398363 -136.453125 543.83203125 C-137.47245117 544.43901855 -138.49177734 545.04600586 -139.54199219 545.67138672 C-141.47219544 546.82383722 -143.40004851 547.98023579 -145.32519531 549.14111328 C-146.60281738 549.90464111 -146.60281738 549.90464111 -147.90625 550.68359375 C-148.65197266 551.13275146 -149.39769531 551.58190918 -150.16601562 552.04467773 C-152 553 -152 553 -154 553 C-154.50359493 493.98357982 -154.89127567 434.967211 -155.12343725 375.9490936 C-155.15087792 368.9809512 -155.1794022 362.01281342 -155.20849609 355.04467773 C-155.21137279 354.35127575 -155.21424949 353.65787377 -155.21721336 352.9434596 C-155.31091325 330.4803325 -155.47612098 308.01842532 -155.67853886 285.55603686 C-155.89211815 261.81185422 -156.02394657 238.06861527 -156.06994689 214.32347459 C-156.1001303 200.10196746 -156.19543055 185.88396282 -156.37416227 171.66353407 C-156.49049371 161.91082241 -156.52559649 152.15992002 -156.4970303 142.40656499 C-156.48293939 136.77838782 -156.50444979 131.15632548 -156.62252045 125.52923775 C-157.27807486 92.67740031 -157.27807486 92.67740031 -151.88816881 84.98668265 C-146.84764795 80.36240594 -141.34294814 77.9765827 -134.86700749 75.990641 C-130.09021697 74.34011007 -125.91811824 71.69081626 -121.625 69.0625 C-119.8882968 68.07373388 -118.15139212 67.0853213 -116.4140625 66.09765625 C-110.58528111 62.77287831 -104.79187343 59.38854689 -99 56 C-90.67274444 51.12902751 -82.3175523 46.311666 -73.93359375 41.5390625 C-67.26342225 37.73615929 -60.62756047 33.87661746 -54 30 C-45.56889696 25.06885498 -37.11409005 20.18299764 -28.6237793 15.35449219 C-24.24740679 12.86381208 -19.88374651 10.35422233 -15.5390625 7.80859375 C-14.66096924 7.29514404 -13.78287598 6.78169434 -12.87817383 6.25268555 C-11.2039869 5.27213359 -9.53184545 4.28807837 -7.86206055 3.30004883 C-7.11996338 2.86587646 -6.37786621 2.4317041 -5.61328125 1.984375 C-4.63548706 1.40768066 -4.63548706 1.40768066 -3.63793945 0.81933594 C-2 0 -2 0 0 0 Z " fill="#23C001" transform="translate(154,312)"/>
<path d="M0 0 C2.55102539 1.20825195 2.55102539 1.20825195 5.09765625 2.73828125 C6.05325439 3.30506592 7.00885254 3.87185059 7.9934082 4.45581055 C9.0062085 5.06851807 10.01900879 5.68122559 11.0625 6.3125 C13.22343547 7.59723404 15.38490365 8.88107242 17.546875 10.1640625 C18.63033203 10.81020508 19.71378906 11.45634766 20.83007812 12.12207031 C25.46014702 14.8650224 30.13299753 17.53005373 34.8125 20.1875 C47.52288066 27.42899074 60.17736266 34.76433489 72.80737305 42.14501953 C82.19060366 47.62784318 91.59439504 53.06987297 101.03955078 58.4453125 C108.97560729 62.96900042 116.86437877 67.57241619 124.74414062 72.19335938 C125.68966797 72.74701172 126.63519531 73.30066406 127.609375 73.87109375 C128.43405273 74.35505615 129.25873047 74.83901855 130.10839844 75.33764648 C132.62110753 76.78217842 135.14633248 78.1979515 137.6807251 79.60389709 C138.48994541 80.05295945 139.29916573 80.50202181 140.13290787 80.96469212 C140.74904827 81.30634372 141.36518867 81.64799532 142 82 C142.34339597 119.80990651 142.60767499 157.61957798 142.76597994 195.43072858 C142.78474035 199.89547199 142.80415521 204.36021234 142.82397461 208.82495117 C142.82790927 209.71379358 142.83184392 210.60263599 142.83589781 211.51841301 C142.9011538 225.90729858 143.01941247 240.29528445 143.15729194 254.68363642 C143.29760792 269.44949576 143.38088994 284.21488423 143.41132742 298.98138291 C143.43190242 308.09242822 143.4968525 317.2009308 143.618747 326.31119318 C143.6980934 332.56010573 143.7219913 338.80770575 143.70252066 345.05708539 C143.69291721 348.66289258 143.70752514 352.26426241 143.78808212 355.86927795 C144.23552141 376.91874352 144.23552141 376.91874352 140.54665112 382.00317502 C137.08041358 385.13668747 133.2800534 386.86167918 128.88186467 388.32047379 C125.95268842 389.3781758 123.40327481 391.00323146 120.76171875 392.6328125 C118.73774693 393.79820941 116.71298949 394.96224284 114.6875 396.125 C112.42055224 397.42965157 110.15362576 398.73434013 107.88671875 400.0390625 C106.74509277 400.69551758 105.6034668 401.35197266 104.42724609 402.02832031 C98.94844203 405.18025232 93.47438887 408.34040797 88 411.5 C85.83335774 412.7500423 83.66669103 414.00004224 81.5 415.25 C80.4275 415.86875 79.355 416.4875 78.25 417.125 C66.33333333 424 54.41666667 430.875 42.5 437.75 C41.4260498 438.36963623 40.35209961 438.98927246 39.24560547 439.62768555 C37.09376086 440.86903475 34.94174452 442.11008629 32.78955078 443.35083008 C27.74447938 446.25980003 22.70111579 449.17160523 17.66400146 452.09432983 C15.88319999 453.1274294 14.10184142 454.15956171 12.3203125 455.19140625 C10.08742917 456.48506088 7.8555909 457.78052164 5.625 459.078125 C4.61179687 459.66464844 3.59859375 460.25117187 2.5546875 460.85546875 C1.67280762 461.36746826 0.79092773 461.87946777 -0.11767578 462.40698242 C-2.45165703 463.69693902 -4.79370991 464.91227536 -7.18014526 466.0995636 C-7.89663679 466.4564391 -8.61312832 466.81331461 -9.35133171 467.18100452 C-10.16742251 467.58640728 -10.16742251 467.58640728 -11 468 C-10.99658252 467.37806727 -10.99316503 466.75613455 -10.98964399 466.11535537 C-10.78829471 429.26456301 -10.63384841 392.41385193 -10.54041203 355.56262224 C-10.52915551 351.13907796 -10.51750663 346.7155348 -10.50561523 342.29199219 C-10.50325444 341.41133469 -10.50089365 340.5306772 -10.49846131 339.62333311 C-10.45928623 325.3588227 -10.38831814 311.09463833 -10.30562484 296.83032142 C-10.22149708 282.1966522 -10.17147872 267.56315387 -10.15320355 252.92925274 C-10.14084661 243.89721472 -10.10180408 234.86609815 -10.0287518 225.83434375 C-9.98122188 219.64309981 -9.96678874 213.45233304 -9.9784876 207.26091985 C-9.98425985 203.68697408 -9.97534079 200.11463946 -9.92715073 196.54097939 C-9.87529226 192.66701061 -9.89308285 188.79514624 -9.91770935 184.92086792 C-9.89149378 183.79051522 -9.8652782 182.66016252 -9.83826822 181.49555671 C-9.86839507 175.67010961 -9.86839507 175.67010961 -12.97168648 170.99619412 C-15.25664702 169.44989325 -17.51515882 168.19210119 -20 167 C-20.97928467 166.41919678 -21.95856934 165.83839355 -22.9675293 165.23999023 C-23.82773682 164.76762939 -24.68794434 164.29526855 -25.57421875 163.80859375 C-26.5600293 163.26315918 -27.54583984 162.71772461 -28.56152344 162.15576172 C-29.5930957 161.58873535 -30.62466797 161.02170898 -31.6875 160.4375 C-39.94278827 155.8592131 -48.13906097 151.20459256 -56.25 146.375 C-64.11086981 141.69525658 -72.01718034 137.10834235 -79.97021484 132.5871582 C-86.63385146 128.79398259 -93.25881405 124.93775555 -99.875 121.0625 C-107.75292121 116.44995308 -115.66618205 111.90895912 -123.625 107.4375 C-134.85205711 101.1295093 -145.94107354 94.59749737 -157 88 C-154.2732142 85.07841579 -151.67061453 83.04395182 -148.17578125 81.1171875 C-147.23847168 80.59503662 -146.30116211 80.07288574 -145.33544922 79.53491211 C-144.33787598 78.98714111 -143.34030273 78.43937012 -142.3125 77.875 C-140.21678234 76.70822594 -138.12173433 75.54024829 -136.02734375 74.37109375 C-134.48216064 73.51040283 -134.48216064 73.51040283 -132.90576172 72.63232422 C-129.02943373 70.4547802 -125.19714388 68.20842644 -121.375 65.9375 C-115.15825836 62.25303296 -108.90359166 58.64056074 -102.625 55.0625 C-87.83144505 46.63029431 -73.11387551 38.07048003 -58.41064453 29.48193359 C-49.71502774 24.40707387 -41.0002963 19.36559282 -32.2644043 14.36035156 C-27.39972789 11.56786543 -22.55973363 8.75395739 -17.79296875 5.796875 C-17.0155835 5.31959961 -16.23819824 4.84232422 -15.43725586 4.35058594 C-14.03193656 3.4828299 -12.63474748 2.60168797 -11.24829102 1.70410156 C-6.97285435 -0.9233057 -4.80847526 -1.18993231 0 0 Z " fill="#23C001" transform="translate(516,106)"/>
<path d="M0 0 C0 92.73 0 185.46 0 281 C-162.69 281 -325.38 281 -493 281 C-490.43906849 278.43906849 -488.79787216 277.18622428 -485.703125 275.5390625 C-484.83905029 275.0745166 -483.97497559 274.6099707 -483.0847168 274.13134766 C-482.14926025 273.63425293 -481.21380371 273.1371582 -480.25 272.625 C-478.240072 271.54317656 -476.23098252 270.45979405 -474.22265625 269.375 C-472.67215576 268.53775391 -472.67215576 268.53775391 -471.09033203 267.68359375 C-466.2586892 265.05134466 -461.4716946 262.34228308 -456.6875 259.625 C-441.31360061 250.90282621 -425.89361984 242.26314267 -410.4375 233.6875 C-400.71138806 228.2902447 -390.9953881 222.87534818 -381.3515625 217.33203125 C-370.50166348 211.09753952 -359.58653469 204.99331633 -348.62011719 198.96694946 C-339.78428052 194.10974293 -330.99528447 189.17883289 -322.25341797 184.15405273 C-316.17485061 180.66212246 -310.06137568 177.23922307 -303.92675781 173.84692383 C-297.95111296 170.53865125 -292.00446578 167.18083031 -286.0625 163.8125 C-277.52547804 158.97427876 -268.95862631 154.19250644 -260.375 149.4375 C-243.36261146 140.00575506 -226.51129527 130.30388659 -209.66748047 120.57519531 C-202.80939387 116.61536394 -195.94136626 112.67361112 -189.0625 108.75 C-177.49298578 102.14851353 -165.95862804 95.48756985 -154.4609375 88.76171875 C-143.56726544 82.39034437 -132.64978315 76.064897 -121.6875 69.8125 C-121.09055328 69.4720163 -120.49360657 69.13153259 -119.87857056 68.7807312 C-119.28547089 68.44244293 -118.69237122 68.10415466 -118.08129883 67.75561523 C-106.51427959 61.1576438 -94.98265986 54.50106945 -83.48828125 47.77734375 C-72.73047782 41.48594176 -61.95054784 35.23663668 -51.125 29.0625 C-41.69740317 23.68550324 -32.27781994 18.29523454 -22.875 12.875 C-21.82715332 12.27179932 -20.77930664 11.66859863 -19.69970703 11.04711914 C-14.0480418 7.78633217 -8.43467918 4.47439772 -2.86767578 1.07080078 C-1 0 -1 0 0 0 Z " fill="#FEFEFE" transform="translate(658,694)"/>
<path d="M0 0 C5.11227414 0.85204569 7.16751273 1.37262625 11.359375 3.8515625 C12.37902344 4.44775391 13.39867187 5.04394531 14.44921875 5.65820312 C15.53847656 6.30724609 16.62773438 6.95628906 17.75 7.625 C18.90697352 8.30502178 20.06453713 8.98404047 21.22265625 9.66210938 C23.62665148 11.07067324 26.02805773 12.48350641 28.42773438 13.89941406 C33.92834945 17.14017016 39.46606589 20.31660683 45 23.5 C47.15510791 24.74321228 49.31005514 25.98670313 51.46484375 27.23046875 C55.91422807 29.79754997 60.36490528 32.36237232 64.81640625 34.92578125 C75.00015988 40.79206293 85.176489 46.66779653 95.29516602 52.64575195 C100.64446692 55.80257517 106.03456197 58.88200339 111.43359375 61.953125 C115.99511755 64.55971003 120.51168985 67.24222217 125.03430176 69.91552734 C131.01256676 73.43909603 137.03022543 76.89112962 143.05859375 80.328125 C144.01987183 80.87678223 144.9811499 81.42543945 145.97155762 81.99072266 C148.3140879 83.327647 150.65690622 84.66406358 153 86 C153.35101465 101.62037163 153.61519984 117.23967265 153.77718258 132.86301327 C153.85440916 140.11810867 153.95959719 147.37074888 154.1315918 154.62426758 C154.28150536 160.94960058 154.37796098 167.27315587 154.41132742 173.60021597 C154.43083291 176.95004222 154.48423465 180.29077762 154.58595085 183.63972282 C155.18027331 204.02134275 155.18027331 204.02134275 151.55665398 208.97187805 C148.08487756 212.07654874 144.25865728 213.81293191 139.88570023 215.30388451 C136.96368133 216.38256212 134.40584791 218.00487783 131.76171875 219.6328125 C129.73774693 220.79820941 127.71298949 221.96224284 125.6875 223.125 C123.42055224 224.42965157 121.15362576 225.73434013 118.88671875 227.0390625 C117.74509277 227.69551758 116.6034668 228.35197266 115.42724609 229.02832031 C109.94844203 232.18025232 104.47438887 235.34040797 99 238.5 C96.83335774 239.7500423 94.66669103 241.00004224 92.5 242.25 C90.89125 243.178125 90.89125 243.178125 89.25 244.125 C77.33333333 251 65.41666667 257.875 53.5 264.75 C52.4260498 265.36963623 51.35209961 265.98927246 50.24560547 266.62768555 C48.09376086 267.86903475 45.94174452 269.11008629 43.78955078 270.35083008 C38.74447938 273.25980003 33.70111579 276.17160523 28.66400146 279.09432983 C26.88319999 280.1274294 25.10184142 281.15956171 23.3203125 282.19140625 C21.08742917 283.48506088 18.8555909 284.78052164 16.625 286.078125 C15.61179687 286.66464844 14.59859375 287.25117187 13.5546875 287.85546875 C12.67280762 288.36746826 11.79092773 288.87946777 10.88232422 289.40698242 C7.31274002 291.37983833 3.64791357 293.17604321 0 295 C0 197.65 0 100.3 0 0 Z " fill="#57CE3C" transform="translate(505,279)"/>
</svg>
